<svg width="15" height="16" xmlns="http://www.w3.org/2000/svg" viewBox="0.033 0 14.934 16" fill="#2d2b2b">
    <svg xmlns="http://www.w3.org/2000/svg" width="15" height="16" viewBox="1.999 2 14.001 15">
        <path paint-order="stroke fill markers" fill-rule="evenodd"
              d="M14.131 14.6c1.207-1.39 1.87-3.191 1.87-5.101 0-2.003-.73-3.886-2.051-5.304C12.627 2.78 10.869 2 8.999 2c-1.87 0-3.628.78-4.95 2.195a.31.31 0 0 0 0 .416c.106.113.28.113.386 0C5.655 3.304 7.275 2.585 9 2.585c1.724 0 3.345.719 4.564 2.026 2.516 2.695 2.516 7.081 0 9.777a.308.308 0 0 0-.009.405l.026.03h-1.149v-1.217l.248.25a.26.26 0 0 0 .381-.006c1.085-1.163 1.682-2.707 1.682-4.351 0-1.643-.597-3.188-1.682-4.35-.973-1.042-2.263-1.676-3.633-1.785A5.469 5.469 0 0 0 5.63 4.516a.307.307 0 0 0-.06.41c.088.13.259.159.381.064 2.077-1.616 4.905-1.375 6.723.573.982 1.051 1.522 2.45 1.522 3.936 0 1.392-.473 2.706-1.339 3.73l-.51-.516a.26.26 0 0 0-.297-.055.294.294 0 0 0-.165.269v2.19c0 .162.123.292.274.292h2.044a.272.272 0 0 0 .25-.174.309.309 0 0 0-.048-.316l-.273-.318zM5.325 5.147a.262.262 0 0 0-.386.001l-.003.004a.307.307 0 0 0 .003.412.264.264 0 0 0 .192.085c.07 0 .141-.029.195-.086l.003-.003a.307.307 0 0 0-.004-.413zm5.402 9.076L9.31 12.703a1.001 1.001 0 0 0-1.482 0l-.323.347a.31.31 0 0 1-.459 0l-1.362-1.458a.366.366 0 0 1 0-.492l.323-.347a1.181 1.181 0 0 0 0-1.587L4.59 7.648a1.006 1.006 0 0 0-.74-.328c-.28 0-.543.116-.741.328l-.34.364c-1.027 1.1-1.027 2.891 0 3.992l1.372 1.469c.107.114.28.114.387 0a.308.308 0 0 0 0-.414l-1.371-1.47c-.815-.871-.815-2.29 0-3.163l.339-.363a.479.479 0 0 1 .708 0L5.62 9.581c.195.21.195.55 0 .758l-.32.343-1.092-1.17a.26.26 0 0 0-.387 0 .308.308 0 0 0 0 .414l1.21 1.297.016.016a.974.974 0 0 0 .25.767l1.361 1.459a.84.84 0 0 0 .617.273.84.84 0 0 0 .615-.273l.324-.346a.478.478 0 0 1 .708 0l1.417 1.517a.553.553 0 0 1 .146.38.554.554 0 0 1-.146.38l-.32.34-1.187-1.271a.26.26 0 0 0-.387 0 .308.308 0 0 0 0 .414l1.141 1.224c-.318.202-.683.31-1.063.31a2.008 2.008 0 0 1-1.476-.655l-1.043-1.117a.262.262 0 0 0-.387 0 .308.308 0 0 0 0 .414l1.043 1.118c.498.533 1.16.827 1.863.827.704 0 1.366-.294 1.863-.827l.34-.364c.198-.212.306-.493.306-.793 0-.3-.108-.582-.306-.794zm-5.39-.298a.268.268 0 0 0-.194-.085.267.267 0 0 0-.193.085.31.31 0 0 0 0 .416.268.268 0 0 0 .193.085.268.268 0 0 0 .194-.085.31.31 0 0 0 0-.416zm5.756-4.717H9.888a.97.97 0 0 0-.616-.66V5.75c0-.161-.122-.293-.273-.293-.151 0-.274.132-.274.293v2.798c-.38.126-.656.505-.656.952 0 .55.417.996.93.996.417 0 .771-.296.889-.703h1.205c.151 0 .274-.131.274-.293 0-.162-.123-.292-.274-.292zM9 9.91c-.211 0-.383-.184-.383-.411 0-.226.172-.41.383-.41.211 0 .383.184.383.41 0 .227-.172.41-.383.41z"/>
    </svg>
</svg>
