<svg xmlns="http://www.w3.org/2000/svg" xmlns:xlink="http://www.w3.org/1999/xlink" width="92.53" height="92.75" viewBox="0 0 92.53 92.75">
  <metadata><?xpacket begin="﻿" id="W5M0MpCehiHzreSzNTczkc9d"?>
<x:xmpmeta xmlns:x="adobe:ns:meta/" x:xmptk="Adobe XMP Core 5.6-c142 79.160924, 2017/07/13-01:06:39        ">
   <rdf:RDF xmlns:rdf="http://www.w3.org/1999/02/22-rdf-syntax-ns#">
      <rdf:Description rdf:about=""/>
   </rdf:RDF>
</x:xmpmeta>
                                                                                                    
                                                                                                    
                                                                                                    
                                                                                                    
                                                                                                    
                                                                                                    
                                                                                                    
                                                                                                    
                                                                                                    
                                                                                                    
                                                                                                    
                                                                                                    
                                                                                                    
                                                                                                    
                                                                                                    
                                                                                                    
                                                                                                    
                                                                                                    
                                                                                                    
                                                                                                    
                           
<?xpacket end="w"?></metadata>
<defs>
    <style>
      .cls-1 {
        fill: #a1c2b8;
        fill-rule: evenodd;
        filter: url(#filter);
      }
    </style>
    <filter id="filter" x="1075.81" y="2023" width="92.53" height="92.75" filterUnits="userSpaceOnUse">
      <feFlood result="flood" flood-color="#2d2b2b"/>
      <feComposite result="composite" operator="in" in2="SourceGraphic"/>
      <feBlend result="blend" in2="SourceGraphic"/>
    </filter>
  </defs>
  <path id="_3_иконка" data-name="3 иконка" class="cls-1" d="M1122.07,2115.75a46.375,46.375,0,1,1,46.26-46.38A46.367,46.367,0,0,1,1122.07,2115.75Zm0-90.63a44.255,44.255,0,1,0,44.14,44.25A44.244,44.244,0,0,0,1122.07,2025.12Zm27.05,46.73a21.709,21.709,0,0,0-6.14-13.03,21.328,21.328,0,0,0-10.46-5.73v-2.69a3.7,3.7,0,0,0,2.76-3.47,3.628,3.628,0,0,0-3.61-3.61h-7.62a3.619,3.619,0,0,0-3.6,3.61,3.5,3.5,0,0,0,2.75,3.47v2.69a21.3,21.3,0,0,0-10.45,5.73,16.224,16.224,0,0,0-1.77,2.06h-7.7a1.06,1.06,0,0,0,0,2.12h6.22a21.939,21.939,0,0,0-1.91,4.11h-11.51a1.06,1.06,0,0,0,0,2.12h10.95a19.337,19.337,0,0,0-.5,4.11h-4.66a1.06,1.06,0,0,0,0,2.12h4.73a20.179,20.179,0,0,0,.64,4.11h-6.85a1.06,1.06,0,0,0,0,2.12h7.56a22.33,22.33,0,0,0,4.87,7.58,21.572,21.572,0,0,0,12.99,6.16c0.71,0.07,1.42.07,2.12,0.07a21.214,21.214,0,0,0,11.66-3.47,1.072,1.072,0,0,0-1.21-1.77,19.438,19.438,0,1,1,5.65-5.73,1.069,1.069,0,0,0,1.77,1.2A21.839,21.839,0,0,0,1149.12,2071.85Zm-26.56-24.99a1.457,1.457,0,0,1,1.49-1.49h7.62a1.49,1.49,0,0,1,0,2.98h-7.69A1.442,1.442,0,0,1,1122.56,2046.86Zm2.69,5.88v-2.27h5.15v2.19A24.634,24.634,0,0,0,1125.25,2052.74Zm16.95,34.62a1.5,1.5,0,0,0-.78.28,1.076,1.076,0,0,0-.28.78,1.5,1.5,0,0,0,.28.78,1.076,1.076,0,0,0,.78.28,1.534,1.534,0,0,0,.78-0.28,1.076,1.076,0,0,0,.28-0.78,1.5,1.5,0,0,0-.28-0.78A1.534,1.534,0,0,0,1142.2,2087.36Zm-14.34-29.81a16.5,16.5,0,1,0,16.46,16.5A16.486,16.486,0,0,0,1127.86,2057.55Zm0,30.8a14.375,14.375,0,1,1,14.34-14.37A14.365,14.365,0,0,1,1127.86,2088.35Zm6.71-22.59-5.23,5.24a3.265,3.265,0,0,0-1.48-.35,3.809,3.809,0,0,0-1.48.35l-2.33-2.33a1.05,1.05,0,1,0-1.49,1.48l2.33,2.34a3.321,3.321,0,1,0,6.29,1.49,3.856,3.856,0,0,0-.35-1.49l5.08-5.1h0l0.14-.14a1.022,1.022,0,0,0,0-1.49A1.174,1.174,0,0,0,1134.57,2065.76Zm-6.71,9.42a1.205,1.205,0,0,1,0-2.41,1.152,1.152,0,0,1,1.2,1.21A1.236,1.236,0,0,1,1127.86,2075.18Zm11.3-2.19h-0.99a1.06,1.06,0,0,0,0,2.12h0.99A1.06,1.06,0,1,0,1139.16,2072.99Zm-21.68-.08h-0.99a1.065,1.065,0,0,0,0,2.13h0.99a1.094,1.094,0,0,0,1.06-1.06A1.05,1.05,0,0,0,1117.48,2072.91Zm10.38-8.21a1.08,1.08,0,0,0,1.06-1.06v-0.99a1.06,1.06,0,0,0-2.12,0v0.99A1.087,1.087,0,0,0,1127.86,2064.7Zm0,18.62a1.094,1.094,0,0,0-1.06,1.06v1a1.06,1.06,0,1,0,2.12,0v-1A1.087,1.087,0,0,0,1127.86,2083.32Zm-31.78-3.82a1.5,1.5,0,0,0-.78.28,1.076,1.076,0,0,0-.28.78,1.5,1.5,0,0,0,.28.78,0.978,0.978,0,0,0,.78.28,1.534,1.534,0,0,0,.78-0.28,1.076,1.076,0,0,0,.28-0.78,1.5,1.5,0,0,0-.28-0.78A1.534,1.534,0,0,0,1096.08,2079.5Z" transform="translate(-1075.81 -2023)"/>
</svg>
