<svg xmlns="http://www.w3.org/2000/svg" xmlns:xlink="http://www.w3.org/1999/xlink" width="92.53" height="92.75" viewBox="0 0 92.53 92.75">
  <metadata><?xpacket begin="﻿" id="W5M0MpCehiHzreSzNTczkc9d"?>
<x:xmpmeta xmlns:x="adobe:ns:meta/" x:xmptk="Adobe XMP Core 5.6-c142 79.160924, 2017/07/13-01:06:39        ">
   <rdf:RDF xmlns:rdf="http://www.w3.org/1999/02/22-rdf-syntax-ns#">
      <rdf:Description rdf:about=""/>
   </rdf:RDF>
</x:xmpmeta>
                                                                                                    
                                                                                                    
                                                                                                    
                                                                                                    
                                                                                                    
                                                                                                    
                                                                                                    
                                                                                                    
                                                                                                    
                                                                                                    
                                                                                                    
                                                                                                    
                                                                                                    
                                                                                                    
                                                                                                    
                                                                                                    
                                                                                                    
                                                                                                    
                                                                                                    
                                                                                                    
                           
<?xpacket end="w"?></metadata>
<defs>
    <style>
      .cls-1 {
        fill: #a1c2b8;
        fill-rule: evenodd;
        filter: url(#filter);
      }
    </style>
    <filter id="filter" x="924.75" y="1840.97" width="92.53" height="92.75" filterUnits="userSpaceOnUse">
      <feFlood result="flood" flood-color="#2d2b2b"/>
      <feComposite result="composite" operator="in" in2="SourceGraphic"/>
      <feBlend result="blend" in2="SourceGraphic"/>
    </filter>
  </defs>
  <path id="_2_иконка" data-name="2 иконка" class="cls-1" d="M971.014,1933.71a46.375,46.375,0,1,1,46.256-46.38A46.368,46.368,0,0,1,971.014,1933.71Zm0-90.63a44.255,44.255,0,1,0,44.136,44.25A44.245,44.245,0,0,0,971.014,1843.08Zm16,35.79a15.962,15.962,0,1,0-15.961,16A15.964,15.964,0,0,0,987.01,1878.87Zm-29.662,0a13.7,13.7,0,1,1,13.7,13.74,13.73,13.73,0,0,1-13.7-13.74h0Zm22.671,25.35a40.092,40.092,0,0,0,3.53-4.32c5.3-7.15,8.334-14.58,8.334-20.53a21.1,21.1,0,0,0-6.285-14.94,20.334,20.334,0,0,0-14.478-6.09h-0.142a20.705,20.705,0,0,0-14.548,6.09,21.1,21.1,0,0,0-6.286,14.94c0,5.88,3.037,13.38,8.334,20.53,1.059,1.42,2.259,2.9,3.531,4.32-2.543,1.27-4.025,3.12-4.025,5.1s1.482,3.82,4.1,5.17a20.193,20.193,0,0,0,8.9,1.84,20.419,20.419,0,0,0,8.9-1.84c2.613-1.28,4.1-3.12,4.1-5.17,0.07-1.98-1.413-3.83-3.955-5.1h0Zm-27.545-24.78a19.011,19.011,0,0,1,5.651-13.38,18.161,18.161,0,0,1,12.924-5.45h0.141a18.165,18.165,0,0,1,12.925,5.45,18.891,18.891,0,0,1,5.649,13.38c0,5.45-2.895,12.39-7.909,19.19-4.873,6.58-9.252,9.63-10.735,9.63s-5.792-3.05-10.736-9.63c-5.085-6.8-7.91-13.81-7.91-19.19h0Zm18.575,34.62c-6.286,0-10.736-2.48-10.736-4.74,0-1.21,1.272-2.48,3.391-3.4,2.684,2.62,5.367,4.53,7.274,4.53s4.591-1.91,7.275-4.53c2.118,0.92,3.39,2.19,3.39,3.4,0.142,2.26-4.308,4.74-10.594,4.74h0Zm5.227-26.83a1.35,1.35,0,0,0,1.13-1.56l-0.848-4.89,3.531-3.39a1.26,1.26,0,0,0,.424-0.85,1.364,1.364,0,0,0-1.131-1.56l-4.872-.71-2.19-4.46a1.45,1.45,0,0,0-.635-0.64,1.338,1.338,0,0,0-1.837.64l-2.189,4.46-4.873.71h0a1.23,1.23,0,0,0-.777.42,1.426,1.426,0,0,0,0,1.92l3.532,3.46-0.848,4.89h0a1.221,1.221,0,0,0,.141.85,1.391,1.391,0,0,0,1.837.57l4.378-2.34,4.308,2.27a1.079,1.079,0,0,0,.919.21h0Z" transform="translate(-924.75 -1840.97)"/>
</svg>
