<svg xmlns="http://www.w3.org/2000/svg" width="92.531" height="92.75" viewBox="0 0 92.531 92.75">
    <defs>
<!--        <style>-->
<!--            .cls-1 {-->
<!--            fill: #a1c2b8;-->
<!--            fill-rule: evenodd;-->
<!--            filter: url(#filter);-->
<!--            }-->
<!--        </style>-->
        <filter id="filter" x="775.5" y="2023.16" width="92.531" height="92.75" filterUnits="userSpaceOnUse">
            <feFlood result="flood" flood-color="#2d2b2b"/>
            <feComposite result="composite" operator="in" in2="SourceGraphic"/>
            <feBlend result="blend" in2="SourceGraphic"/>
        </filter>
    </defs>
    <path id="_1_иконка" class="cls-1"
          d="M821.772,2115.9a46.375,46.375,0,1,1,46.26-46.38A46.376,46.376,0,0,1,821.772,2115.9Zm0-90.63a44.25,44.25,0,1,0,44.141,44.25A44.246,44.246,0,0,0,821.772,2025.27Zm0.036,17.24a17.76,17.76,0,0,0-17.727,17.77c0,8.92,3.672,12.53,6.639,15.44,1.695,1.63,2.966,2.9,3.249,4.81a3.6,3.6,0,0,0-2.4,3.4,3.687,3.687,0,0,0,2.472,3.47v2.41h-0.283a1.13,1.13,0,1,0,0,2.26h0.283v1.14a3.314,3.314,0,0,0,3.319,3.32h8.9a3.314,3.314,0,0,0,3.32-3.32v-1.14h0.282a1.13,1.13,0,0,0,0-2.26h-0.282v-2.41a3.689,3.689,0,0,0,2.472-3.47,3.6,3.6,0,0,0-2.4-3.4c0.283-1.91,1.625-3.11,3.249-4.81,2.967-2.91,6.639-6.52,6.639-15.44a17.76,17.76,0,0,0-17.727-17.77h0Zm5.509,50.62a1.122,1.122,0,0,1-1.13,1.14h-8.9a1.121,1.121,0,0,1-1.13-1.14V2092h11.088l0.071,1.13h0Zm-11.088-3.32v-2.2h11.088v2.2H816.229Zm15.113-15.65c-1.836,1.77-3.531,3.47-3.955,6.16h-0.635a1.13,1.13,0,1,0,0,2.26h1.7a1.42,1.42,0,0,1,0,2.84H815.1a1.42,1.42,0,0,1,0-2.84h1.7a1.13,1.13,0,0,0,0-2.26h-0.636c-0.353-2.69-2.119-4.39-3.955-6.16-2.826-2.76-6-5.88-6-13.88a15.538,15.538,0,1,1,31.075,0c0.071,8-3.107,11.12-5.932,13.88h0Zm-30.651-13.88a1.113,1.113,0,0,0-1.13-1.13h-5.086a1.135,1.135,0,0,0,0,2.27h5.086A1.122,1.122,0,0,0,800.691,2060.28Zm1.341,10.2-4.449,2.55a1.068,1.068,0,0,0-.423,1.48,1.116,1.116,0,0,0,.987.57,1.674,1.674,0,0,0,.566-0.14l4.45-2.55a1.078,1.078,0,0,0,.423-1.49A1.177,1.177,0,0,0,802.032,2070.48Zm44,2.55-4.449-2.55a1.092,1.092,0,1,0-1.059,1.91l4.449,2.55a1.339,1.339,0,0,0,.566.14,1.206,1.206,0,0,0,.988-0.57A1.269,1.269,0,0,0,846.032,2073.03Zm3.037-13.81h-5.085a1.135,1.135,0,0,0,0,2.27h5.085a1.135,1.135,0,0,0,0-2.27h0Zm-8.052-8.92a1.68,1.68,0,0,0,.566-0.14l4.449-2.55a1.08,1.08,0,0,0,.424-1.49,1.06,1.06,0,0,0-1.483-.42l-4.45,2.55a1.07,1.07,0,0,0-.423,1.48A1.009,1.009,0,0,0,841.017,2050.3Zm-37.925-2.05-4.45-2.55a1.044,1.044,0,0,0-1.482.42,1.063,1.063,0,0,0,.423,1.49l4.449,2.55a1.346,1.346,0,0,0,.565.14,1.2,1.2,0,0,0,.989-0.57A1.1,1.1,0,0,0,803.092,2048.25Zm27.473,7.43-4.167-.71-2.047-3.82h0a2.465,2.465,0,0,0-1.131-1.13,2.882,2.882,0,0,0-2.189-.22,2.816,2.816,0,0,0-1.695,1.42l-1.978,3.75-4.237.78a2.689,2.689,0,0,0-1.554.78,2.574,2.574,0,0,0-.848,1.98,3.068,3.068,0,0,0,.777,2.05l2.966,3.05-0.564,4.18a3.029,3.029,0,0,0,.211,1.77,2.885,2.885,0,0,0,2.543,1.63,2.8,2.8,0,0,0,1.271-.29l3.815-1.84,3.955,1.84a2.51,2.51,0,0,0,1.624.21,2.8,2.8,0,0,0,2.4-3.18l-0.564-4.25,2.9-3.04a3.438,3.438,0,0,0,.847-1.56,2.848,2.848,0,0,0-.5-2.13,2.362,2.362,0,0,0-1.836-1.27h0Zm0.071,2.9a0.619,0.619,0,0,1-.212.36l-0.07.07-3.32,3.47a1.038,1.038,0,0,0-.282.92l0.635,4.74a0.579,0.579,0,0,1-.847.64l-4.38-2.13a1.211,1.211,0,0,0-.988,0l-4.308,2.13a0.675,0.675,0,0,1-.847-0.29,0.877,0.877,0,0,1-.071-0.42V2068l0.635-4.74a1.068,1.068,0,0,0-.282-0.93l-3.319-3.46a0.542,0.542,0,0,1-.141-0.43,0.5,0.5,0,0,1,.211-0.42,0.443,0.443,0,0,1,.354-0.15h0.07l4.731-.84a1.132,1.132,0,0,0,.778-0.57l2.26-4.25a0.468,0.468,0,0,1,.353-0.28h0.212a0.425,0.425,0,0,1,.282.07,0.549,0.549,0,0,1,.283.28l2.331,4.32a1.1,1.1,0,0,0,.776.57l4.732,0.85a0.746,0.746,0,0,1,.424.28c0.141,0.14.07,0.07,0,.28h0Zm-7.628,4.75h-0.141v-5.6a1.132,1.132,0,0,0-.565-0.99,1.092,1.092,0,0,0-1.13,0l-1.2.71a1.078,1.078,0,0,0-.424,1.49,1.105,1.105,0,0,0,1.059.56v3.76h-0.141a1.13,1.13,0,1,0,0,2.26h2.471a1.113,1.113,0,0,0,1.131-1.13,1,1,0,0,0-1.06-1.06h0Zm-1.2,16.99h0a1.13,1.13,0,1,0,1.129,1.13A1.119,1.119,0,0,0,821.808,2080.32Z"
          transform="translate(-775.5 -2023.16)"/>
</svg>
