<svg xmlns="http://www.w3.org/2000/svg" xmlns:xlink="http://www.w3.org/1999/xlink" width="52" height="50" viewBox="0 0 52 50">
  <metadata><?xpacket begin="﻿" id="W5M0MpCehiHzreSzNTczkc9d"?>
<x:xmpmeta xmlns:x="adobe:ns:meta/" x:xmptk="Adobe XMP Core 5.6-c142 79.160924, 2017/07/13-01:06:39        ">
   <rdf:RDF xmlns:rdf="http://www.w3.org/1999/02/22-rdf-syntax-ns#">
      <rdf:Description rdf:about=""/>
   </rdf:RDF>
</x:xmpmeta>
                                                                                                    
                                                                                                    
                                                                                                    
                                                                                                    
                                                                                                    
                                                                                                    
                                                                                                    
                                                                                                    
                                                                                                    
                                                                                                    
                                                                                                    
                                                                                                    
                                                                                                    
                                                                                                    
                                                                                                    
                                                                                                    
                                                                                                    
                                                                                                    
                                                                                                    
                                                                                                    
                           
<?xpacket end="w"?></metadata>
<defs>
    <style>
      .cls-1 {
        fill: #2d2b2b;
        fill-rule: evenodd;
        filter: url(#filter);
      }
    </style>
    <filter id="filter" x="366" y="1525" width="52" height="50" filterUnits="userSpaceOnUse">
      <feFlood result="flood" flood-color="#2d2b2b"/>
      <feComposite result="composite" operator="in" in2="SourceGraphic"/>
      <feBlend result="blend" in2="SourceGraphic"/>
    </filter>
  </defs>
  <path id="иконка" class="cls-1" d="M416.916,1575H367.083a1.09,1.09,0,0,1,0-2.18h49.833A1.09,1.09,0,0,1,416.916,1575Zm-36.833,0H369.249a1.089,1.089,0,0,1-1.083-1.09v-11.96a2.176,2.176,0,0,1,2.167-2.17H379a2.175,2.175,0,0,1,2.166,2.17v11.96A1.088,1.088,0,0,1,380.083,1575Zm-9.75-2.18H379v-10.87h-8.667v10.87Zm27.083,2.18H386.583a1.089,1.089,0,0,1-1.084-1.09v-25a2.169,2.169,0,0,1,2.167-2.17h8.667a2.169,2.169,0,0,1,2.167,2.17v25A1.089,1.089,0,0,1,397.416,1575Zm-9.75-2.18h8.667v-23.91h-8.667v23.91Zm27.083,2.18H403.916a1.088,1.088,0,0,1-1.083-1.09v-38.04a2.178,2.178,0,0,1,2.166-2.18h8.667a2.178,2.178,0,0,1,2.167,2.18v38.04A1.088,1.088,0,0,1,414.749,1575Zm-9.75-2.18h8.667v-36.95H405v36.95Zm-33.583-26.08a1.09,1.09,0,0,1-.767-1.86l19.5-19.56a1.071,1.071,0,0,1,1.532,0,1.083,1.083,0,0,1,0,1.53l-19.5,19.57A1.085,1.085,0,0,1,371.416,1546.74Zm19.5-10.87a1.089,1.089,0,0,1-1.084-1.09v-7.61h-7.583a1.085,1.085,0,0,1,0-2.17h8.667a1.082,1.082,0,0,1,1.083,1.09v8.69A1.088,1.088,0,0,1,390.916,1535.87Z" transform="translate(-366 -1525)"/>
</svg>
